<?xml version="1.0" encoding="UTF-8"?>
<svg width="156px" height="55px" viewBox="0 0 156 55" version="1.1" xmlns="http://www.w3.org/2000/svg" xmlns:xlink="http://www.w3.org/1999/xlink">
    <!-- Generator: Sketch 63.1 (92452) - https://sketch.com -->
    <title>Logo</title>
    <desc>Created with Sketch.</desc>
    <defs>
        <polygon id="path-1" points="0.254448002 0.387331106 7.36531205 0.387331106 7.36531205 7.51187515 0.254448002 7.51187515"></polygon>
        <polygon id="path-3" points="0.254448002 0.387331106 7.36531205 0.387331106 7.36531205 7.51187515 0.254448002 7.51187515"></polygon>
        <polygon id="path-5" points="0.294431841 0.927753477 9.3560639 0.927753477 9.3560639 12.576 0.294431841 12.576"></polygon>
        <polygon id="path-7" points="0.211804641 0.230956641 9.3391007 0.230956641 9.3391007 11.6159999 0.211804641 11.6159999"></polygon>
        <polygon id="path-9" points="0 54.1451503 155.109313 54.1451503 155.109313 0.672765924 0 0.672765924"></polygon>
    </defs>
    <g id="Desktop" stroke="none" stroke-width="1" fill="none" fill-rule="evenodd">
        <g id="UI-KIt" transform="translate(-1179.000000, -1290.000000)">
            <g id="Logo/01" transform="translate(1177.000000, 1290.000000)">
                <g id="Group-52" transform="translate(2.000000, 0.000000)">
                    <path d="M48.1678275,32.0721965 C46.2088515,33.8122925 44.7204675,35.4538925 42.8928195,36.1707245 C41.0870595,36.8875566 39.5548994,37.2432366 37.4700674,37.2487086 C34.0336514,37.2487086 31.9378754,36.7835886 30.0938114,35.0434925 C28.2442754,33.2815085 26.9145794,31.0379885 26.9145794,28.3129325 C26.9145794,26.7151085 26.9857154,25.2595565 27.6751874,23.9462765 C28.3810754,22.6111085 29.1526274,21.2759405 30.2743874,20.4770284 C31.4125634,19.6781164 32.5562114,19.0761964 33.9679874,18.6603244 C35.0131394,18.3757804 36.5836034,18.1021804 38.6848514,17.8340524 C42.9639555,17.2977964 44.6274435,17.4510124 46.1212995,16.8053164 C47.6151555,16.1650924 47.7245955,14.3866924 47.7245955,14.1787564 C47.7245955,11.9242924 47.2977795,11.1089644 46.2964035,10.1841964 C44.9448195,8.93658038 43.4345475,8.52618037 40.7587395,8.52618037 C38.2635074,8.52618037 36.8024834,8.98582838 35.6041154,9.91059638 C34.4768834,10.7697004 33.3934274,13.0569964 33.5575874,14.5563244 L28.3208834,14.6219884 C28.3208834,12.3511084 28.8188354,9.88323638 29.8968194,8.47146037 C30.9748034,7.03232436 32.2497794,5.87226036 34.2908354,5.11165235 C36.3318914,4.33462835 38.7012674,3.82573234 41.3934915,3.82026034 C44.0583555,3.82026034 45.8203395,4.27443635 47.4892995,4.93107635 C49.1637315,5.58771635 50.2362435,6.33738036 51.0187395,7.33875637 C51.8067075,8.32918837 52.5673155,9.24301238 52.8846915,10.7587564 C53.0597955,11.6999404 53.1473475,13.4017324 53.1473475,15.8641324 L53.1473475,23.2403885 C53.1473475,28.3840685 53.0379075,30.7041965 53.2184835,32.1488045 C53.3443395,32.9313005 53.6069955,33.1556525 55.1282115,33.2049005 L55.1282115,36.9532206 C55.1282115,36.9532206 53.0324355,37.3636206 51.4017795,36.9477486 C48.6329475,36.2363885 48.2827395,33.9053165 48.2827395,33.9053165 C48.2827395,33.9053165 48.3210435,33.6098285 48.1678275,32.0721965 L48.1678275,32.0721965 Z M47.6370435,20.3511724 C45.7108995,21.1719725 45.8039235,21.3142445 41.9571075,21.8888045 C40.9228995,22.0420205 39.2429954,22.1405165 38.0391554,22.3156205 C36.7204034,22.5071405 35.4618434,22.9667885 34.9912514,23.1856685 C34.0828994,23.5960685 33.6615554,24.1979885 33.1690754,25.0023725 C32.6820674,25.7793965 32.6765954,26.8300205 32.6765954,27.7930925 C32.6765954,29.2705325 32.9994434,30.1953005 34.0555394,31.1802605 C35.1335234,32.1652205 36.5836034,32.4716525 38.6465474,32.4716525 C40.6876035,32.4716525 42.1978755,31.9518125 43.7902275,31.0270445 C45.3825795,30.0858605 46.3675395,29.3526125 47.1172035,27.7329005 C47.6808195,26.4852845 47.7738435,25.0461485 47.7738435,22.6111085 L47.6370435,20.3511724 Z" id="Fill-1" fill="#E52E37"></path>
                    <g id="Group-5" transform="translate(147.744001, 2.305150)">
                        <mask id="mask-2" fill="white">
                            <use xlink:href="#path-1"></use>
                        </mask>
                        <g id="Clip-4"></g>
                        <path d="M3.73464002,1.97421112 C4.22164803,1.97421112 4.57185603,2.02345912 4.80168003,2.11648312 C5.21208003,2.28611512 5.40907203,2.61443512 5.40907203,3.10691512 C5.40907203,3.45712313 5.28321603,3.70883513 5.02603203,3.87846713 C4.88923203,3.96054713 4.70318403,4.02621113 4.45694403,4.06451513 C4.76337603,4.11376313 4.98772803,4.24509113 5.13547203,4.44755513 C5.27227203,4.65549113 5.34888003,4.85795513 5.34888003,5.05494714 L5.34888003,5.33949114 C5.34888003,5.43251514 5.34888003,5.52553914 5.35435203,5.62950714 C5.36529603,5.73347514 5.37624003,5.80461114 5.39265603,5.83744314 L5.41454403,5.88121914 L4.76337603,5.88121914 C4.76337603,5.87027514 4.75790403,5.85933114 4.75790403,5.84838714 C4.75790403,5.83197114 4.75243203,5.81555514 4.75243203,5.80461114 L4.73601603,5.67328314 L4.73601603,5.36685114 C4.73601603,4.91267513 4.61016003,4.61171513 4.36392003,4.46944313 C4.22164803,4.38189113 3.96446402,4.34358713 3.59784002,4.34358713 L3.05611202,4.34358713 L3.05611202,5.88121914 L2.36664001,5.88121914 L2.36664001,1.97421112 L3.73464002,1.97421112 Z M4.47336003,2.59254712 C4.30372803,2.49405112 4.02465603,2.44480312 3.64161602,2.44480312 L3.05611202,2.44480312 L3.05611202,3.86205113 L3.67444802,3.86205113 C3.96993602,3.86205113 4.18334403,3.82921913 4.33108803,3.77449913 C4.59921603,3.67053113 4.73601603,3.46259513 4.73601603,3.16163512 C4.73601603,2.88256312 4.64846403,2.68557112 4.47336003,2.59254712 L4.47336003,2.59254712 Z M6.32836804,6.46672314 C5.62795204,7.16713915 4.78526403,7.51187515 3.80577602,7.51187515 C2.81534402,7.51187515 1.97812801,7.16713915 1.28865601,6.46672314 C0.599184004,5.77177914 0.254448002,4.92909113 0.254448002,3.93865913 C0.254448002,2.95917112 0.599184004,2.12195512 1.29960001,1.42701111 C1.98907201,0.737539108 2.82628802,0.387331106 3.80577602,0.387331106 C4.78526403,0.387331106 5.62795204,0.737539108 6.32836804,1.42701111 C7.02331204,2.11648312 7.36804805,2.95369912 7.36804805,3.93865913 C7.36804805,4.92361913 7.02331204,5.76630714 6.32836804,6.46672314 L6.32836804,6.46672314 Z M1.63886401,1.77174711 C1.04788801,2.36819512 0.746928005,3.09049912 0.746928005,3.93865913 C0.746928005,4.79229113 1.04788801,5.52006714 1.63339201,6.12198714 C2.22984001,6.72390715 2.95214402,7.02486715 3.80577602,7.02486715 C4.65393603,7.02486715 5.37624003,6.72390715 5.97268804,6.12198714 C6.56913604,5.52006714 6.86462404,4.79229113 6.86462404,3.93865913 C6.86462404,3.09049912 6.56913604,2.36819512 5.97268804,1.77174711 C5.37624003,1.17529911 4.64846403,0.868867109 3.80577602,0.868867109 C2.95761602,0.868867109 2.24078401,1.17529911 1.63886401,1.77174711 L1.63886401,1.77174711 Z" id="Fill-3" fill="#E52E37" mask="url(#mask-2)"></path>
                    </g>
                    <path d="M106.307828,17.7081964 C106.307828,12.7779244 110.121812,8.20880437 114.953588,8.20880437 C121.328468,8.20880437 123.35858,12.7779244 123.65954,17.7081964 L106.307828,17.7081964 Z M123.418772,25.9271405 C123.243668,28.3074605 120.32162,32.0174765 115.36946,32.0174765 C109.35026,32.0174765 106.307828,28.6084205 106.307828,21.9708845 L129.07682,21.9708845 C129.07682,10.7040364 124.666388,3.39891634 115.67042,3.39891634 C105.3557,3.39891634 100.7045,11.2512364 100.7045,21.1172525 C100.7045,30.3156845 105.891956,37.0736046 114.652628,37.0736046 C119.659508,37.0736046 121.68962,35.8533485 123.117812,34.8793325 C127.057652,32.2035245 128.485844,27.4538285 128.66642,25.9271405 L123.418772,25.9271405 Z" id="Fill-6" fill="#E52E37"></path>
                    <path d="M80.1932549,16.289854 C80.1932549,7.56201397 74.2561349,5.81097396 69.7307908,5.81097396 C64.7074948,5.81097396 62.4530308,8.04902197 61.3859908,9.68514998 L61.2163588,9.87119798 L61.2163588,6.44572596 L56.1547588,6.50591796 L56.1547588,37.1436462 L61.6158148,37.1436462 L61.6158148,20.62915 C61.6158148,12.837022 66.2943748,10.681054 68.7184708,10.681054 C73.5228869,10.681054 74.6720069,13.67971 74.6720069,19.009438 L74.6720069,37.1436462 L80.1932549,37.1436462 L80.1932549,16.289854 Z" id="Fill-8" fill="#E52E37"></path>
                    <path d="M101.904509,22.4480429 L101.904509,17.6819308 L91.0918374,17.6819308 L91.0918374,8.74615477 C91.0918374,6.63396276 91.3544934,5.73655476 94.9003494,5.74202676 C95.6335974,5.74202676 95.7047334,5.73108276 96.4379814,5.78033076 L96.4379814,0.773450724 C95.5077414,0.724202724 95.4967974,0.674954724 94.6376934,0.674954724 C89.0781414,0.674954724 85.6198373,2.48071473 85.6198373,6.45885876 L85.6198373,17.7475948 L81.5322533,17.7475948 L81.5322533,22.4480429 L85.6198373,22.4480429 L85.6198373,37.167723 L91.0918374,37.167723 L91.0918374,22.4480429 L101.904509,22.4480429 Z" id="Fill-10" fill="#E52E37"></path>
                    <path d="M0.0902880006,27.1211309 C-0.00820800005,26.5958189 -0.0246240002,26.1361709 0.0355680002,25.7367149 L5.79211204,25.7367149 C5.80305604,26.9624429 5.97268804,28.0842029 6.48705604,29.0527469 C6.82632004,29.6874989 7.36804805,30.1854509 7.98091205,30.7107629 C8.34206405,31.0062509 8.82907206,31.2306029 9.20116806,31.4002349 C10.2627361,31.8817709 11.4009121,31.9638509 13.2066721,31.9638509 C15.6690721,31.9638509 17.5459681,31.4549549 18.7388641,30.4481069 C19.9262881,29.4138989 20.3257441,28.9542509 20.3257441,27.5807789 C20.3257441,26.3495789 20.0138401,25.5123629 18.9577441,24.8064749 C18.2244961,24.3194669 16.5445921,23.9692589 13.6280161,23.2250669 C9.70459206,22.2127469 6.97953604,21.3426989 5.45284803,20.6149228 C3.94804802,19.8652588 2.52532802,18.8474668 1.73188801,17.5506028 C0.954864006,16.2373228 0.845424005,14.7927148 0.845424005,13.2167788 C0.845424005,11.7831148 1.16280001,10.4588908 1.79755201,9.24410678 C2.45419202,8.00743477 3.33518402,6.98964276 4.44052803,6.17978676 C5.27227203,5.55597875 6.54177604,4.76253875 7.96449605,4.33572275 C9.40910406,3.89249074 11.0944801,3.66813874 12.7415521,3.66813874 C15.2203681,3.66813874 17.3872801,4.02929074 19.2532321,4.76253875 C21.1301281,5.48484275 22.3832161,6.74887476 23.2751521,8.00196277 C24.1670882,9.23316278 24.7854242,10.8911788 25.1192162,12.9760108 L25.2833762,13.8570028 L19.4830561,13.8351148 C19.2422881,12.1770988 18.6841441,10.7489068 17.5350241,9.81866678 C16.4023201,8.88842678 15.1820641,8.67501877 13.0972321,8.67501877 C10.6403041,8.67501877 9.39816006,8.85012277 8.34753605,9.67639478 C7.29691205,10.5081388 6.83179204,11.4712108 6.83179204,12.5765548 C6.83179204,13.2879148 7.05067204,13.9226668 7.49390405,14.4917548 C7.92619205,15.0772588 8.61019205,15.5642668 9.54043206,15.9473068 C10.0766881,16.1497708 10.8372961,16.2099628 13.4474401,16.9377388 C17.2340641,17.9719468 20.2764961,18.8146348 21.7648801,19.4822188 C23.2696801,20.1333868 24.2655842,21.0307949 25.1137442,22.2838829 C25.9673762,23.5369709 26.0330402,25.2825389 26.0330402,27.1375469 C26.0330402,28.9597229 25.5132002,30.6779309 24.4625762,32.2921709 C23.4338401,33.8899949 21.9345121,35.1376109 19.9755361,36.0240749 C18.0056161,36.894123 15.7894561,37.326411 13.3106401,37.326411 C9.21211206,37.326411 6.08212804,36.4618349 3.92068802,34.7217389 C1.78113601,32.9816429 0.681264004,30.5411309 0.0902880006,27.1211309" id="Fill-12" fill="#E52E37"></path>
                    <path d="M136.575102,17.1046348 C136.575102,12.0649228 140.607966,9.19759478 144.706494,9.19759478 L146.342622,9.25778678 L146.342622,3.38633074 C145.921278,3.27689074 145.98147,3.22217074 145.319358,3.22217074 C141.308382,3.22217074 137.986878,5.82137076 136.394526,9.15381878 L136.26867,9.21401078 L136.26867,4.34940275 L131.228958,4.34940275 L131.228958,36.853083 L136.575102,36.853083 L136.575102,17.1046348 Z" id="Fill-14" fill="#E52E37"></path>
                    <path d="M48.1678275,32.0721965 C46.2088515,33.8122925 44.7204675,35.4538925 42.8928195,36.1707245 C41.0870595,36.8875566 39.5548994,37.2432366 37.4700674,37.2487086 C34.0336514,37.2487086 31.9378754,36.7835886 30.0938114,35.0434925 C28.2442754,33.2815085 26.9145794,31.0379885 26.9145794,28.3129325 C26.9145794,26.7151085 26.9857154,25.2595565 27.6751874,23.9462765 C28.3810754,22.6111085 29.1526274,21.2759405 30.2743874,20.4770284 C31.4125634,19.6781164 32.5562114,19.0761964 33.9679874,18.6603244 C35.0131394,18.3757804 36.5836034,18.1021804 38.6848514,17.8340524 C42.9639555,17.2977964 44.6274435,17.4510124 46.1212995,16.8053164 C47.6151555,16.1650924 47.7245955,14.3866924 47.7245955,14.1787564 C47.7245955,11.9242924 47.2977795,11.1089644 46.2964035,10.1841964 C44.9448195,8.93658038 43.4345475,8.52618037 40.7587395,8.52618037 C38.2635074,8.52618037 36.8024834,8.98582838 35.6041154,9.91059638 C34.4768834,10.7697004 33.3934274,13.0569964 33.5575874,14.5563244 L28.3208834,14.6219884 C28.3208834,12.3511084 28.8188354,9.88323638 29.8968194,8.47146037 C30.9748034,7.03232436 32.2497794,5.87226036 34.2908354,5.11165235 C36.3318914,4.33462835 38.7012674,3.82573234 41.3934915,3.82026034 C44.0583555,3.82026034 45.8203395,4.27443635 47.4892995,4.93107635 C49.1637315,5.58771635 50.2362435,6.33738036 51.0187395,7.33875637 C51.8067075,8.32918837 52.5673155,9.24301238 52.8846915,10.7587564 C53.0597955,11.6999404 53.1473475,13.4017324 53.1473475,15.8641324 L53.1473475,23.2403885 C53.1473475,28.3840685 53.0379075,30.7041965 53.2184835,32.1488045 C53.3443395,32.9313005 53.6069955,33.1556525 55.1282115,33.2049005 L55.1282115,36.9532206 C55.1282115,36.9532206 53.0324355,37.3636206 51.4017795,36.9477486 C48.6329475,36.2363885 48.2827395,33.9053165 48.2827395,33.9053165 C48.2827395,33.9053165 48.3210435,33.6098285 48.1678275,32.0721965 L48.1678275,32.0721965 Z M47.6370435,20.3511724 C45.7108995,21.1719725 45.8039235,21.3142445 41.9571075,21.8888045 C40.9228995,22.0420205 39.2429954,22.1405165 38.0391554,22.3156205 C36.7204034,22.5071405 35.4618434,22.9667885 34.9912514,23.1856685 C34.0828994,23.5960685 33.6615554,24.1979885 33.1690754,25.0023725 C32.6820674,25.7793965 32.6765954,26.8300205 32.6765954,27.7930925 C32.6765954,29.2705325 32.9994434,30.1953005 34.0555394,31.1802605 C35.1335234,32.1652205 36.5836034,32.4716525 38.6465474,32.4716525 C40.6876035,32.4716525 42.1978755,31.9518125 43.7902275,31.0270445 C45.3825795,30.0858605 46.3675395,29.3526125 47.1172035,27.7329005 C47.6808195,26.4852845 47.7738435,25.0461485 47.7738435,22.6111085 L47.6370435,20.3511724 Z" id="Fill-16" fill="#E52E37"></path>
                    <g id="Group-20" transform="translate(147.744001, 2.305150)">
                        <mask id="mask-4" fill="white">
                            <use xlink:href="#path-3"></use>
                        </mask>
                        <g id="Clip-19"></g>
                        <path d="M3.73464002,1.97421112 C4.22164803,1.97421112 4.57185603,2.02345912 4.80168003,2.11648312 C5.21208003,2.28611512 5.40907203,2.61443512 5.40907203,3.10691512 C5.40907203,3.45712313 5.28321603,3.70883513 5.02603203,3.87846713 C4.88923203,3.96054713 4.70318403,4.02621113 4.45694403,4.06451513 C4.76337603,4.11376313 4.98772803,4.24509113 5.13547203,4.44755513 C5.27227203,4.65549113 5.34888003,4.85795513 5.34888003,5.05494714 L5.34888003,5.33949114 C5.34888003,5.43251514 5.34888003,5.52553914 5.35435203,5.62950714 C5.36529603,5.73347514 5.37624003,5.80461114 5.39265603,5.83744314 L5.41454403,5.88121914 L4.76337603,5.88121914 C4.76337603,5.87027514 4.75790403,5.85933114 4.75790403,5.84838714 C4.75790403,5.83197114 4.75243203,5.81555514 4.75243203,5.80461114 L4.73601603,5.67328314 L4.73601603,5.36685114 C4.73601603,4.91267513 4.61016003,4.61171513 4.36392003,4.46944313 C4.22164803,4.38189113 3.96446402,4.34358713 3.59784002,4.34358713 L3.05611202,4.34358713 L3.05611202,5.88121914 L2.36664001,5.88121914 L2.36664001,1.97421112 L3.73464002,1.97421112 Z M4.47336003,2.59254712 C4.30372803,2.49405112 4.02465603,2.44480312 3.64161602,2.44480312 L3.05611202,2.44480312 L3.05611202,3.86205113 L3.67444802,3.86205113 C3.96993602,3.86205113 4.18334403,3.82921913 4.33108803,3.77449913 C4.59921603,3.67053113 4.73601603,3.46259513 4.73601603,3.16163512 C4.73601603,2.88256312 4.64846403,2.68557112 4.47336003,2.59254712 L4.47336003,2.59254712 Z M6.32836804,6.46672314 C5.62795204,7.16713915 4.78526403,7.51187515 3.80577602,7.51187515 C2.81534402,7.51187515 1.97812801,7.16713915 1.28865601,6.46672314 C0.599184004,5.77177914 0.254448002,4.92909113 0.254448002,3.93865913 C0.254448002,2.95917112 0.599184004,2.12195512 1.29960001,1.42701111 C1.98907201,0.737539108 2.82628802,0.387331106 3.80577602,0.387331106 C4.78526403,0.387331106 5.62795204,0.737539108 6.32836804,1.42701111 C7.02331204,2.11648312 7.36804805,2.95369912 7.36804805,3.93865913 C7.36804805,4.92361913 7.02331204,5.76630714 6.32836804,6.46672314 L6.32836804,6.46672314 Z M1.63886401,1.77174711 C1.04788801,2.36819512 0.746928005,3.09049912 0.746928005,3.93865913 C0.746928005,4.79229113 1.04788801,5.52006714 1.63339201,6.12198714 C2.22984001,6.72390715 2.95214402,7.02486715 3.80577602,7.02486715 C4.65393603,7.02486715 5.37624003,6.72390715 5.97268804,6.12198714 C6.56913604,5.52006714 6.86462404,4.79229113 6.86462404,3.93865913 C6.86462404,3.09049912 6.56913604,2.36819512 5.97268804,1.77174711 C5.37624003,1.17529911 4.64846403,0.868867109 3.80577602,0.868867109 C2.95761602,0.868867109 2.24078401,1.17529911 1.63886401,1.77174711 L1.63886401,1.77174711 Z" id="Fill-18" fill="#E52E37" mask="url(#mask-4)"></path>
                    </g>
                    <path d="M106.307828,17.7081964 C106.307828,12.7779244 110.121812,8.20880437 114.953588,8.20880437 C121.328468,8.20880437 123.35858,12.7779244 123.65954,17.7081964 L106.307828,17.7081964 Z M123.418772,25.9271405 C123.243668,28.3074605 120.32162,32.0174765 115.36946,32.0174765 C109.35026,32.0174765 106.307828,28.6084205 106.307828,21.9708845 L129.07682,21.9708845 C129.07682,10.7040364 124.666388,3.39891634 115.67042,3.39891634 C105.3557,3.39891634 100.7045,11.2512364 100.7045,21.1172525 C100.7045,30.3156845 105.891956,37.0736046 114.652628,37.0736046 C119.659508,37.0736046 121.68962,35.8533485 123.117812,34.8793325 C127.057652,32.2035245 128.485844,27.4538285 128.66642,25.9271405 L123.418772,25.9271405 Z" id="Fill-21" fill="#E52E37"></path>
                    <path d="M80.1932549,16.289854 C80.1932549,7.56201397 74.2561349,5.81097396 69.7307908,5.81097396 C64.7074948,5.81097396 62.4530308,8.04902197 61.3859908,9.68514998 L61.2163588,9.87119798 L61.2163588,6.44572596 L56.1547588,6.50591796 L56.1547588,37.1436462 L61.6158148,37.1436462 L61.6158148,20.62915 C61.6158148,12.837022 66.2943748,10.681054 68.7184708,10.681054 C73.5228869,10.681054 74.6720069,13.67971 74.6720069,19.009438 L74.6720069,37.1436462 L80.1932549,37.1436462 L80.1932549,16.289854 Z" id="Fill-23" fill="#E52E37"></path>
                    <path d="M101.904509,22.4480429 L101.904509,17.6819308 L91.0918374,17.6819308 L91.0918374,8.74615477 C91.0918374,6.63396276 91.3544934,5.73655476 94.9003494,5.74202676 C95.6335974,5.74202676 95.7047334,5.73108276 96.4379814,5.78033076 L96.4379814,0.773450724 C95.5077414,0.724202724 95.4967974,0.674954724 94.6376934,0.674954724 C89.0781414,0.674954724 85.6198373,2.48071473 85.6198373,6.45885876 L85.6198373,17.7475948 L81.5322533,17.7475948 L81.5322533,22.4480429 L85.6198373,22.4480429 L85.6198373,37.167723 L91.0918374,37.167723 L91.0918374,22.4480429 L101.904509,22.4480429 Z" id="Fill-25" fill="#E52E37"></path>
                    <path d="M0.0902880006,27.1211309 C-0.00820800005,26.5958189 -0.0246240002,26.1361709 0.0355680002,25.7367149 L5.79211204,25.7367149 C5.80305604,26.9624429 5.97268804,28.0842029 6.48705604,29.0527469 C6.82632004,29.6874989 7.36804805,30.1854509 7.98091205,30.7107629 C8.34206405,31.0062509 8.82907206,31.2306029 9.20116806,31.4002349 C10.2627361,31.8817709 11.4009121,31.9638509 13.2066721,31.9638509 C15.6690721,31.9638509 17.5459681,31.4549549 18.7388641,30.4481069 C19.9262881,29.4138989 20.3257441,28.9542509 20.3257441,27.5807789 C20.3257441,26.3495789 20.0138401,25.5123629 18.9577441,24.8064749 C18.2244961,24.3194669 16.5445921,23.9692589 13.6280161,23.2250669 C9.70459206,22.2127469 6.97953604,21.3426989 5.45284803,20.6149228 C3.94804802,19.8652588 2.52532802,18.8474668 1.73188801,17.5506028 C0.954864006,16.2373228 0.845424005,14.7927148 0.845424005,13.2167788 C0.845424005,11.7831148 1.16280001,10.4588908 1.79755201,9.24410678 C2.45419202,8.00743477 3.33518402,6.98964276 4.44052803,6.17978676 C5.27227203,5.55597875 6.54177604,4.76253875 7.96449605,4.33572275 C9.40910406,3.89249074 11.0944801,3.66813874 12.7415521,3.66813874 C15.2203681,3.66813874 17.3872801,4.02929074 19.2532321,4.76253875 C21.1301281,5.48484275 22.3832161,6.74887476 23.2751521,8.00196277 C24.1670882,9.23316278 24.7854242,10.8911788 25.1192162,12.9760108 L25.2833762,13.8570028 L19.4830561,13.8351148 C19.2422881,12.1770988 18.6841441,10.7489068 17.5350241,9.81866678 C16.4023201,8.88842678 15.1820641,8.67501877 13.0972321,8.67501877 C10.6403041,8.67501877 9.39816006,8.85012277 8.34753605,9.67639478 C7.29691205,10.5081388 6.83179204,11.4712108 6.83179204,12.5765548 C6.83179204,13.2879148 7.05067204,13.9226668 7.49390405,14.4917548 C7.92619205,15.0772588 8.61019205,15.5642668 9.54043206,15.9473068 C10.0766881,16.1497708 10.8372961,16.2099628 13.4474401,16.9377388 C17.2340641,17.9719468 20.2764961,18.8146348 21.7648801,19.4822188 C23.2696801,20.1333868 24.2655842,21.0307949 25.1137442,22.2838829 C25.9673762,23.5369709 26.0330402,25.2825389 26.0330402,27.1375469 C26.0330402,28.9597229 25.5132002,30.6779309 24.4625762,32.2921709 C23.4338401,33.8899949 21.9345121,35.1376109 19.9755361,36.0240749 C18.0056161,36.894123 15.7894561,37.326411 13.3106401,37.326411 C9.21211206,37.326411 6.08212804,36.4618349 3.92068802,34.7217389 C1.78113601,32.9816429 0.681264004,30.5411309 0.0902880006,27.1211309" id="Fill-27" fill="#E52E37"></path>
                    <path d="M136.575102,17.1046348 C136.575102,12.0649228 140.607966,9.19759478 144.706494,9.19759478 L146.342622,9.25778678 L146.342622,3.38633074 C145.921278,3.27689074 145.98147,3.22217074 145.319358,3.22217074 C141.308382,3.22217074 137.986878,5.82137076 136.394526,9.15381878 L136.26867,9.21401078 L136.26867,4.34940275 L131.228958,4.34940275 L131.228958,36.853083 L136.575102,36.853083 L136.575102,17.1046348 Z" id="Fill-29" fill="#E52E37"></path>
                    <g id="Group-33" transform="translate(10.272000, 41.569150)">
                        <mask id="mask-6" fill="white">
                            <use xlink:href="#path-5"></use>
                        </mask>
                        <g id="Clip-32"></g>
                        <path d="M2.23699185,8.60496953 C2.23699185,10.3177055 3.49555186,10.9907615 5.05507187,10.9907615 C6.76780788,10.9907615 7.40255989,10.1480735 7.40255989,9.30538553 C7.40255989,8.44628152 6.93743988,8.10701752 6.48873588,7.93191352 C5.71171188,7.64189752 4.69391987,7.43943352 3.17270386,7.01261752 C1.26844785,6.50372151 0.710303844,5.34912951 0.710303844,4.1945375 C0.710303844,1.97290548 2.76777586,0.927753477 4.77599987,0.927753477 C7.09612788,0.927753477 9.0386879,2.15895349 9.0386879,4.4790815 L7.09612788,4.4790815 C7.00310388,3.04541749 6.03455988,2.51463349 4.69391987,2.51463349 C3.79103986,2.51463349 2.65833586,2.84295349 2.65833586,3.9647135 C2.65833586,4.7417375 3.18911986,5.1794975 3.97708786,5.39837751 C4.15219187,5.44215351 6.61459188,6.08237751 7.18915188,6.25200951 C8.65564789,6.68976951 9.3560639,7.93191352 9.3560639,9.08650553 C9.3560639,11.5762655 7.13990388,12.5776416 4.92921587,12.5776416 C2.39020785,12.5776416 0.332735841,11.3573855 0.294431841,8.60496953 L2.23699185,8.60496953 Z" id="Fill-31" fill="#1D1D1B" mask="url(#mask-6)"></path>
                    </g>
                    <path d="M24.5430146,49.4583822 L27.9356546,49.4583822 L26.2666946,44.6758542 L26.2283906,44.6758542 L24.5430146,49.4583822 Z M25.2270146,42.7606542 L27.3009026,42.7606542 L31.5800066,53.8797583 L29.4951746,53.8797583 L28.4554946,50.9358222 L24.0122306,50.9358222 L22.9725505,53.8797583 L20.9643265,53.8797583 L25.2270146,42.7606542 Z" id="Fill-34" fill="#1D1D1B"></path>
                    <polygon id="Fill-36" fill="#1D1D1B" points="33.5740034 42.760107 35.5165634 42.760107 35.5165634 52.199307 41.1746115 52.199307 41.1746115 53.8792111 33.5740034 53.8792111"></polygon>
                    <g id="Group-40" transform="translate(43.104000, 42.529150)">
                        <mask id="mask-8" fill="white">
                            <use xlink:href="#path-7"></use>
                        </mask>
                        <g id="Clip-39"></g>
                        <path d="M0.211804641,0.230956641 L2.15436465,0.230956641 L2.15436465,6.70980468 C2.15436465,8.20913269 2.25286065,9.9328127 4.77545267,9.9328127 C7.29804469,9.9328127 7.39106869,8.20913269 7.39106869,6.70980468 L7.39106869,0.230956641 L9.3391007,0.230956641 L9.3391007,7.35002869 C9.3391007,10.2009407 7.51692469,11.6181887 4.77545267,11.6181887 C2.03398065,11.6181887 0.211804641,10.2009407 0.211804641,7.35002869 L0.211804641,0.230956641 Z" id="Fill-38" fill="#1D1D1B" mask="url(#mask-8)"></path>
                    </g>
                    <path d="M57.5621572,52.2928782 L59.4773572,52.2928782 C62.5307332,52.2928782 63.1819012,50.5473102 63.1819012,48.3202062 C63.1819012,46.0931022 62.5307332,44.3475342 59.4773572,44.3475342 L57.5621572,44.3475342 L57.5621572,52.2928782 Z M55.6195971,42.7606542 L60.2215492,42.7606542 C63.6470212,42.7606542 65.1299332,45.2504142 65.1299332,48.3202062 C65.1299332,51.3845262 63.6470212,53.8797583 60.2215492,53.8797583 L55.6195971,53.8797583 L55.6195971,42.7606542 Z" id="Fill-41" fill="#1D1D1B"></path>
                    <path d="M75.3406853,49.4583822 L78.7333253,49.4583822 L77.0643653,44.6758542 L77.0260613,44.6758542 L75.3406853,49.4583822 Z M76.0246853,42.7606542 L78.0985733,42.7606542 L82.3776773,53.8797583 L80.2928453,53.8797583 L79.2476933,50.9358222 L74.8099013,50.9358222 L73.7702213,53.8797583 L71.7565253,53.8797583 L76.0246853,42.7606542 Z" id="Fill-43" fill="#1D1D1B"></path>
                    <polygon id="Fill-45" fill="#1D1D1B" points="84.2917829 42.760107 86.3437829 42.760107 91.427271 50.951691 91.454631 50.951691 91.454631 42.760107 93.304167 42.760107 93.304167 53.8792111 91.246695 53.8792111 86.1905669 45.704043 86.1467909 45.704043 86.1467909 53.8792111 84.2917829 53.8792111"></polygon>
                    <mask id="mask-10" fill="white">
                        <use xlink:href="#path-9"></use>
                    </mask>
                    <g id="Clip-48"></g>
                    <polygon id="Fill-47" fill="#1D1D1B" mask="url(#mask-10)" points="96.5424966 53.8770223 98.4850566 53.8770223 98.4850566 42.7579182 96.5424966 42.7579182"></polygon>
                    <polygon id="Fill-49" fill="#1D1D1B" mask="url(#mask-10)" points="101.770993 42.760107 104.512465 42.760107 107.582257 51.466059 107.609617 51.466059 110.602801 42.760107 113.311441 42.760107 113.311441 53.8792111 111.461905 53.8792111 111.461905 45.299115 111.429073 45.299115 108.342865 53.8792111 106.739569 53.8792111 103.658833 45.299115 103.626001 45.299115 103.626001 53.8792111 101.770993 53.8792111"></polygon>
                    <path d="M118.865521,49.4583822 L122.263633,49.4583822 L120.594673,44.6758542 L120.550897,44.6758542 L118.865521,49.4583822 Z M119.549521,42.7606542 L121.623409,42.7606542 L125.907985,53.8797583 L123.817681,53.8797583 L122.778001,50.9358222 L118.334737,50.9358222 L117.295057,53.8797583 L115.286833,53.8797583 L119.549521,42.7606542 Z" id="Fill-50" fill="#1D1D1B" mask="url(#mask-10)"></path>
                    <polygon id="Fill-51" fill="#1D1D1B" mask="url(#mask-10)" points="127.89651 42.760107 129.83907 42.760107 129.83907 52.199307 135.497118 52.199307 135.497118 53.8792111 127.89651 53.8792111"></polygon>
                </g>
            </g>
        </g>
    </g>
</svg>